<?xml version="1.0" encoding="UTF-8" standalone="no"?><!DOCTYPE svg PUBLIC "-//W3C//DTD SVG 1.1//EN" "http://www.w3.org/Graphics/SVG/1.1/DTD/svg11.dtd"><svg width="100%" height="100%" viewBox="0 0 100 100" version="1.1" xmlns="http://www.w3.org/2000/svg" xmlns:xlink="http://www.w3.org/1999/xlink" xml:space="preserve" xmlns:serif="http://www.serif.com/" style="fill-rule:evenodd;clip-rule:evenodd;stroke-linejoin:round;stroke-miterlimit:2;"><path d="M35.904,32.328c-0.678,0.976 -1.75,1.506 -2.808,1.506c-0.605,0.003 -1.197,-0.178 -1.697,-0.52l-4.989,-3.429c-0.663,-0.46 -1.115,-1.167 -1.254,-1.962c-0.155,-0.908 0.055,-1.841 0.584,-2.595c1.058,-1.523 3.078,-1.966 4.506,-0.987l4.99,3.429c0.663,0.459 1.115,1.166 1.253,1.961c0.16,0.883 -0.053,1.831 -0.585,2.597Zm-1.632,-2.191c-0.032,-0.204 -0.145,-0.388 -0.313,-0.509l-4.99,-3.429c-0.126,-0.085 -0.275,-0.129 -0.427,-0.126c-0.341,0 -0.715,0.197 -0.953,0.541c-0.192,0.278 -0.273,0.608 -0.218,0.905c0.031,0.205 0.144,0.389 0.313,0.51l4.987,3.429c0.402,0.274 1.034,0.085 1.382,-0.415c0.19,-0.261 0.268,-0.587 0.219,-0.906Zm-17.376,49.172c-1.189,-2.039 -1.815,-4.357 -1.813,-6.717c-0,-4.667 2.401,-8.784 6.038,-11.197l-2.659,-0l-0,-2.253l10.137,-0c2.227,-0 4.328,0.542 6.182,1.495l3.786,-6.025c-0.283,-0.355 -0.562,-0.708 -0.837,-1.059l-3.512,-0c-1.846,-0.002 -3.365,-1.521 -3.367,-3.367c0.002,-1.597 1.139,-2.985 2.705,-3.301c-0.197,-0.526 -0.346,-1.068 -0.444,-1.621l-0.054,-0.016l-0.044,-0.795l-0,-0.002l-0.088,-1.588l0.13,0.038c0.009,-0.083 0.024,-0.168 0.037,-0.251l-16.829,-11.565l8.059,-11.603l-0.403,-2.211l2.218,-0.403l1.015,-1.461c1.058,-1.516 3.172,-1.901 4.697,-0.855l12.975,8.916c0.717,0.492 1.216,1.245 1.388,2.098c1.824,-1.244 4.007,-1.206 5.48,-1.179c-0.089,-0.338 -0.154,-0.686 -0.186,-1.046l-0.098,-0l0.103,-1.032c0.003,-0.024 0.003,-0.048 0.005,-0.071l0.116,-1.149l0.086,-0c0.662,-2.511 2.758,-4.302 5.211,-4.302c2.453,-0 4.55,1.791 5.212,4.302l3.53,-0l-0,2.253l-3.317,-0c-0.233,2.586 -1.98,4.689 -4.256,5.235l-0.063,0.314c-0.008,0.038 -0.178,0.872 -0.513,2.02l1.391,3.042l0.001,-0l2.13,4.661l4.014,2.19l0.001,-0l0.62,0.339l1.357,0.74l1.447,0.79l0.025,0.014c1.092,0.631 1.766,1.799 1.766,3.06c0,1.939 -1.595,3.534 -3.534,3.534c-0.007,0 -0.014,0 -0.021,-0c-0.432,-0 -0.86,-0.081 -1.259,-0.233l-0.765,2.281l1.853,6.284l0.862,2.128c1.292,-0.398 2.637,-0.599 3.989,-0.598c7.453,-0 13.516,6.033 13.516,13.45c-0,2.446 -0.662,4.738 -1.813,6.717l2.939,-0l-0,2.252l-4.58,-0c-1.295,1.437 -2.882,2.581 -4.655,3.355c-1.705,0.744 -3.546,1.128 -5.407,1.126c-1.922,-0 -3.75,-0.404 -5.407,-1.126c-1.773,-0.774 -3.36,-1.918 -4.655,-3.355l-22.677,-0c-1.295,1.437 -2.882,2.581 -4.655,3.355c-1.705,0.744 -3.546,1.128 -5.407,1.126c-1.922,-0 -3.75,-0.404 -5.407,-1.126c-1.773,-0.774 -3.36,-1.918 -4.655,-3.355l-4.58,-0l-0,-2.252l2.939,-0l-0,-0.001Zm11.703,-17.914c-6.21,-0 -11.263,5.023 -11.263,11.197c-0,2.521 0.853,4.843 2.273,6.717l17.98,-0c0.931,-1.226 1.597,-2.631 1.957,-4.128l-7.943,-1.054c-0.579,1.123 -1.741,1.832 -3.005,1.833c-1.85,0.001 -3.374,-1.517 -3.379,-3.367c0.006,-1.848 1.529,-3.366 3.377,-3.366c0.248,-0 0.494,0.027 0.736,0.081l4.24,-6.747c-1.546,-0.766 -3.248,-1.165 -4.973,-1.166Zm38.503,-14.424c0.34,-0.102 0.623,-0.34 0.782,-0.657c0.209,-0.419 0.171,-0.921 -0.1,-1.303c-0.102,-0.146 -0.233,-0.274 -0.395,-0.37l-1.47,-0.803l-1.283,2.245l0.554,0.298l0.885,0.475c0.311,0.179 0.684,0.221 1.027,0.115Zm-3.161,-4.212l-4.634,-2.527l-1.474,-3.227l-0.469,0.234l-2.376,1.183l1.71,3.403l5.953,3.193l1.292,-2.258l-0.002,-0.001Zm-7.009,-23.719c-1.23,-0 -2.313,0.825 -2.839,2.049l5.678,-0c-0.526,-1.224 -1.608,-2.049 -2.839,-2.049Zm-3.158,4.302c0.061,0.446 0.195,0.879 0.398,1.281c0.339,0.148 0.648,0.357 0.911,0.617l1.135,1.129c0.23,0.061 0.468,0.097 0.714,0.097c1.59,-0 2.915,-1.355 3.158,-3.124l-6.316,-0Zm1.348,7.729l0.125,-0.409c0.166,-0.541 0.316,-1.086 0.449,-1.636l-0.713,-0.709l-1.488,-1.48c-0.164,-0.163 -0.393,-0.243 -0.623,-0.216c-0.024,0.003 -0.052,0.003 -0.077,0.005c-0.305,0.024 -0.688,0.021 -1.131,0.012c-1.312,-0.018 -3.101,-0.059 -4.355,0.911c-1.004,0.777 -1.974,1.596 -2.909,2.455l-0.001,0.001c-0.284,0.261 -0.561,0.521 -0.828,0.781c-2.37,2.296 -4.104,4.51 -5.35,6.403c0.27,0.185 0.553,0.349 0.848,0.49c1.841,0.893 5.751,1.823 11.939,-1.379l0.31,-0.16l-2.387,-4.748l2.013,-1.012l2.33,4.636l-0,-0.001l0.7,1.391l2.921,-1.453l-1.773,-3.882Zm-11.106,-5.028c-0.054,-0.294 -0.22,-0.549 -0.466,-0.718l-12.974,-8.916c-0.509,-0.351 -1.216,-0.223 -1.57,0.284l-0.635,0.914l14.823,10.188l0.641,-0.923c0.169,-0.241 0.234,-0.54 0.181,-0.829Zm-24.61,4.468l14.449,9.929c1.012,-2.32 3.268,-6.476 7.817,-10.958l-14.587,-10.025l-7.679,11.054Zm14.812,18.561c-0.611,-0 -1.114,0.503 -1.114,1.114c-0,0.611 0.503,1.114 1.114,1.114l1.821,-0c-0.516,-0.72 -0.998,-1.463 -1.443,-2.229l-0.378,-0l-0,0.001Zm5.644,23.52c-0,-3.595 -1.72,-6.791 -4.377,-8.841l-4.242,6.751c0.325,0.407 0.552,0.884 0.661,1.393l7.94,1.053c0.004,-0.12 0.018,-0.236 0.018,-0.356Zm-11.269,1.114l0.012,0c0.612,0 1.117,-0.502 1.12,-1.114c-0.003,-0.612 -0.508,-1.114 -1.12,-1.114l-0.012,-0c-0.612,-0 -1.117,0.502 -1.12,1.114c0.003,0.612 0.508,1.114 1.12,1.114Zm34.843,-25.709l-8.432,-4.525l-2.329,-4.634c-2.175,2.329 -5.189,5.878 -6.319,7.218l2.085,4.123l14.264,-0l0.731,-2.182Zm-11.904,8.296l-0,0.002c0.587,1.172 0.804,2.495 0.623,3.793l7.697,-7.657l-10.272,-0l1.952,3.862Zm-14.484,-17.183c-1.275,2.268 -1.71,3.734 -1.712,3.734c-0.014,0.08 -0.018,0.168 -0.028,0.25c-0.019,0.145 -0.041,0.288 -0.049,0.442l0.055,0.015c0.574,0.153 1.152,0.297 1.731,0.43l0.121,0.027c0.337,0.076 0.674,0.148 1.012,0.217c0.319,0.064 0.65,0.125 0.987,0.185l0.216,0.037c0.341,0.058 0.69,0.114 1.046,0.166l0.163,0.022c0.331,0.046 0.667,0.089 1.007,0.126l0.189,0.022c0.828,0.086 1.658,0.143 2.49,0.169l0.067,0.001c1.488,-1.774 2.998,-3.53 4.529,-5.267c-2.219,0.792 -4.151,1.097 -5.782,1.097c-2.412,-0 -4.178,-0.639 -5.313,-1.241c-0.282,-0.151 -0.526,-0.298 -0.729,-0.432Zm25.656,13.666l-11.965,11.901l-1.588,4.739l14.154,-14.08l-0.601,-2.56Zm-15.426,20.091l-0.447,-0.36l-0.7,-0.087l-2.705,-0.337l-0.758,-0.094l-0.156,0.773l-0.106,0.526l-0.161,0.799l-0.178,0.884l1.164,0.097l3.166,0.263l0.164,0.014l4.043,0.336c0.016,0 0.07,0.01 0.118,-0.035l-2.563,-2.067l-0.881,-0.712Zm-6.674,-19.314l0.305,0.382l0.096,0.121l0.32,0.401c0.569,0.713 1.138,1.429 1.685,2.147c0.661,0.855 1.291,1.734 1.889,2.634l0.254,0.386l-1.868,9.288l-0.173,0.861l0.805,0.1l1.42,0.177l1.176,0.146l0.662,-1.975l0.799,-2.384l0.799,-2.383l0.983,-2.933c0.351,-1.058 0.267,-2.214 -0.233,-3.21l-2.466,-4.88l-1.139,-2.252l-1.501,-2.971l-0.121,-0.005c-0.352,-0.009 -0.703,-0.022 -1.052,-0.042l-0.245,-0.017c-0.293,-0.019 -0.585,-0.042 -0.873,-0.068l-0.282,-0.026c-0.288,-0.028 -0.571,-0.06 -0.853,-0.095c-0.063,-0.008 -0.127,-0.014 -0.19,-0.021l-0.121,-0.016c-0.235,-0.031 -0.466,-0.065 -0.696,-0.099l-0.239,-0.034l-0.222,-0.035c-0.708,-0.112 -1.414,-0.241 -2.116,-0.387c-0.586,-0.122 -1.171,-0.255 -1.752,-0.399l-0.039,-0.009c0.104,0.294 0.223,0.583 0.355,0.865c0.171,0.368 0.367,0.744 0.586,1.126c0.212,0.371 0.445,0.747 0.695,1.127c0.473,0.713 0.968,1.411 1.486,2.093c0.613,0.803 1.235,1.599 1.866,2.387Zm-3.911,8.274c2.036,1.519 3.603,3.581 4.522,5.949l1.545,-7.684c-0.424,-0.626 -0.923,-1.311 -1.541,-2.123c-0.38,-0.498 -0.771,-0.995 -1.164,-1.492l-3.362,5.35Zm27.732,-3.473l-0.218,-0.736l-14.44,14.362l2.975,2.398l0.109,0.273c0.319,0.783 0.196,1.679 -0.323,2.346c-0.444,0.587 -1.138,0.935 -1.875,0.94c-0.092,0 -0.186,-0.006 -0.279,-0.018l-9.064,-0.752c-0.273,0.747 -0.612,1.463 -1.007,2.142l19.394,0c-1.189,-2.039 -1.815,-4.357 -1.813,-6.717c-0,-5.244 3.033,-9.793 7.443,-12.01l-0.902,-2.228Zm18.238,14.238c-0,-6.174 -5.053,-11.197 -11.263,-11.197c-1.09,0 -2.14,0.162 -3.137,0.451l2.991,7.387c0.049,-0.002 0.096,-0.007 0.146,-0.007c1.85,-0.001 3.374,1.517 3.379,3.367c-0.005,1.85 -1.529,3.368 -3.379,3.367c-1.85,0.001 -3.374,-1.517 -3.379,-3.367c0.001,-0.965 0.419,-1.884 1.145,-2.52l-2.99,-7.392c-3.585,1.876 -6.04,5.612 -6.04,9.911c-0,2.521 0.853,4.843 2.273,6.717l17.981,0c1.472,-1.929 2.271,-4.29 2.273,-6.717Zm-11.257,-1.114l-0.012,-0c-0.612,-0 -1.117,0.502 -1.12,1.114c0.003,0.612 0.508,1.114 1.12,1.114l0.012,0c0.612,0 1.117,-0.502 1.12,-1.114c-0.003,-0.612 -0.508,-1.114 -1.12,-1.114Zm-0.006,12.311c2.517,0 4.837,-0.835 6.714,-2.229l-13.429,0c1.939,1.447 4.295,2.229 6.715,2.229Zm-42.801,0c2.518,0 4.837,-0.835 6.714,-2.229l-13.428,0c1.939,1.447 4.295,2.229 6.714,2.229Z" style="fill-rule:nonzero;"/></svg>